<?xml version="1.0" encoding="UTF-8"?>
<svg width="201px" height="201px" viewBox="0 0 201 201" version="1.1" xmlns="http://www.w3.org/2000/svg" xmlns:xlink="http://www.w3.org/1999/xlink">
    <!-- Generator: Sketch 46.2 (44496) - http://www.bohemiancoding.com/sketch -->
    <title>American_Broadcasting_Company_Logo</title>
    <desc>Created with Sketch.</desc>
    <defs></defs>
    <g id="Page-1" stroke="none" stroke-width="1" fill="none" fill-rule="evenodd">
        <g id="American_Broadcasting_Company_Logo">
            <path d="M100.092,0.2853 C155.552,0.2853 200.072,44.9708 200.072,100.4103 C200.072,155.8498 155.552,200.5353 100.092,200.5353 C44.629,200.5353 0.072,155.8498 0.072,100.4103 C0.072,44.9708 44.627,0.2853 100.092,0.2853 Z M166.602,69.0203 C149.2045,69.0203 135.2455,83.0363 135.2455,100.4123 C135.2455,117.7888 149.2045,131.8043 166.602,131.8043 C181.619,131.8043 194.0785,121.3608 197.206,107.3283 L179.8615,107.3283 C177.37365,112.11365 172.391,115.3913 166.602,115.3913 C158.3075,115.3913 151.6585,108.7033 151.6585,100.4118 C151.6585,92.1203 158.3075,85.4323 166.602,85.4323 C172.4085,85.4323 177.417,88.7224 179.897,93.5313 L197.2055,93.5313 C194.0908,79.4813 181.631,69.0198 166.6015,69.0198 L166.602,69.0203 Z M34.5105,69.0203 C17.113,69.0203 3.154,83.0363 3.154,100.4123 C3.154,117.7888 17.113,131.8043 34.5105,131.8043 C45.1935,131.8043 49.3695,124.2623 49.3695,124.2623 L49.3695,131.1233 L65.867,131.1233 L65.867,100.4118 C65.867,83.0353 51.908,69.0198 34.5105,69.0198 L34.5105,69.0203 Z M69.857,47.4018 L69.857,100.4118 C69.857,117.7883 83.8265,131.8148 101.224,131.8148 C118.6215,131.8148 132.555,117.7878 132.555,100.4118 C132.555,83.0353 118.6215,69.0088 101.224,69.0088 C90.541,69.0088 86.3505,76.5713 86.3505,76.5713 L86.3505,47.4008 L69.857,47.4018 Z" id="Combined-Shape" fill="#FFFFFF" fill-rule="nonzero"></path>
            <path d="M101.224,85.4313 C109.5185,85.4313 116.1695,92.1213 116.1695,100.4128 C116.1695,108.7043 109.519,115.3943 101.224,115.3943 C92.9295,115.3943 86.2785,108.7043 86.2785,100.4128 C86.2785,92.1213 92.9295,85.4313 101.224,85.4313 Z" id="Shape" fill="#FFFFFF"></path>
            <path d="M34.5105,85.4333 C42.805,85.4333 49.454,92.1213 49.454,100.4128 C49.454,108.7043 42.805,115.3923 34.5105,115.3923 C26.216,115.3923 19.567,108.7043 19.567,100.4128 C19.567,92.1213 26.216,85.4333 34.5105,85.4333 Z" id="Shape" stroke="#FFFFFF" fill="#FFFFFF"></path>
            <g id="Group" transform="translate(3.072000, 47.285300)"></g>
        </g>
    </g>
</svg>