<?xml version="1.0" encoding="utf-8"?>
<!-- Generator: Adobe Illustrator 18.1.1, SVG Export Plug-In . SVG Version: 6.00 Build 0)  -->
<!DOCTYPE svg PUBLIC "-//W3C//DTD SVG 1.1//EN" "http://www.w3.org/Graphics/SVG/1.1/DTD/svg11.dtd">
<svg version="1.1" id="Layer_1" xmlns="http://www.w3.org/2000/svg" xmlns:xlink="http://www.w3.org/1999/xlink" x="0px" y="0px"
	 viewBox="-337.9 150 217.8 202" enable-background="new -337.9 150 217.8 202" xml:space="preserve">
<g>
	<path fill="#FFFFFF" d="M-259.3,217.4c-0.6,0-0.9,0-1.2,0c-15.9,0-31.7,0-47.6,0c-3.4,0-6.3,1.4-8.7,3.8c-0.9,0.8-1.7,1.9-2.1,3
		c-2.7,8-5.4,16.1-8,24.2c-1.6,5,1.8,9.5,7.1,9.5c15.7,0,31.4,0,47.1,0c0.9,0,1.3-0.2,1.6-1.2c1.7-5.9,3.5-11.7,5.2-17.5
		c0.6-2.1,1.3-4.2,2-6.5c-0.5,0-0.9,0-1.2,0c-8.3,0-16.5,0-24.8,0c-1.9,0-2.6,0.5-3.2,2.3c-0.6,1.8-1.2,3.7-1.8,5.5
		c-0.1,0.4-0.2,0.8-0.4,1.4c6.3,0,12.3,0,18.6,0c-0.6,1.7-1.2,3.2-1.7,4.7c-0.3,0.8-0.7,1.1-1.6,1.1c-10.3,0-20.6,0-30.8,0
		c-0.8,0-1.6-0.1-2.3-0.2c-1.5-0.3-2.3-1.5-2.1-3c0.1-0.5,0.2-0.9,0.3-1.3c1.4-4.3,2.7-8.7,4.1-13c0.7-2.2,1.9-3.1,4.3-3.1
		c2.8,0,5.6,0,8.4,0c11.5,0,23,0,34.5,0c1.1,0,1.7-0.2,1.9-1.4c0.2-1.3,0.7-2.6,1.1-3.9C-260.2,220.5-259.8,219-259.3,217.4z"/>
	<path fill="#FFFFFF" d="M-195,217.5c-0.6,0-0.9,0-1.3,0c-15.7,0-31.5,0-47.2,0c-5.3,0-10.6,3.8-12.2,8.9
		c-2.2,6.8-4.3,13.6-6.3,20.5c-0.5,1.7-0.6,3.6-0.7,5.4c-0.1,2.4,1.3,4.1,3.5,4.9c1,0.4,2.2,0.7,3.3,0.7c16,0,31.9,0,47.9,0
		c0.7,0,1-0.3,1.2-0.9c0.6-2.2,1.3-4.4,2-6.6c0.2-0.6,0.3-1.1,0.5-1.8c-0.6,0-1.1,0-1.5,0c-13.4,0-26.8,0-40.2,0
		c-0.7,0-1.5,0-2.2-0.1c-2.6-0.2-3.6-1.7-2.8-4.2c1.3-4.2,2.6-8.3,4-12.5c1.3-4,1.8-4.4,6-4.4c13.5,0,27,0,40.5,0
		c2.7,0,2.7,0,3.4-2.6C-196.5,222.4-195.8,220-195,217.5z"/>
	<path fill="#FFFFFF" d="M-130.7,217.5c-0.6,0-0.9,0-1.2,0c-4.5,0-9,0-13.5,0c-0.6,0-1.3,0.2-1.8,0.6c-5.9,4.2-11.7,8.5-17.6,12.8
		c-0.4,0.3-0.8,0.5-1.2,0.8c-0.3-0.4-0.6-0.7-0.8-1c-3.4-4.2-6.9-8.3-10.3-12.5c-0.4-0.5-0.9-0.8-1.6-0.8c-1.9,0-3.8,0-5.7,0
		c-2.1,0-4.2,0-6.6,0c5.8,6.8,11.4,13.5,17.1,20.2c-9.3,6.7-18.4,13.4-27.7,20.2c0.5,0.1,0.6,0.1,0.8,0.1c4.7,0,9.5,0,14.2,0
		c0.4,0,1-0.2,1.3-0.5c4.3-3.1,8.5-6.2,12.8-9.3c1.5-1.1,3-2.1,4.6-3.3c0.3,0.3,0.5,0.6,0.7,0.9c3.3,3.8,6.6,7.6,9.9,11.5
		c0.5,0.5,0.9,0.8,1.6,0.8c3.6,0,7.3,0,10.9,0c0.3,0,0.5-0.1,0.9-0.1c-5.2-6.3-10.4-12.5-15.6-18.7
		C-149.9,231.9-140.5,224.8-130.7,217.5z"/>
	<path fill="#FFFFFF" d="M-319.7,275.4c-0.1,0-0.2,0-0.3,0c-0.1-0.3-0.3-0.7-0.4-1c-0.8-2.5-1.6-5-2.4-7.4c-0.1-0.3-0.4-0.8-0.6-0.8
		c-1.2-0.1-2.5,0-3.8,0c0,4.8,0,9.5,0,14.2c0,0.2,0.3,0.5,0.5,0.6c1.2,0.3,1.5,0,1.5-1.3c0-3.4,0-6.8,0-10.2c0-0.4,0.1-0.7,0.1-1.1
		c0.4,0.3,0.5,0.6,0.6,0.9c1.1,3.5,2.3,7,3.4,10.6c0.2,0.5,0.2,1,1,1c0.7,0,0.8-0.5,1-1c1.1-3.6,2.3-7.2,3.4-10.8
		c0.1-0.3,0.2-0.5,0.3-0.8c0.1,0,0.2,0,0.2,0.1c0,0.4,0,0.8,0,1.1c0,3.4,0.1,6.8,0,10.2c0,1.1,0.5,1.2,1.3,1.2c0.8,0,1.4,0,1.3-1.2
		c-0.1-4.2,0-8.4,0-12.6c0-0.3,0-0.6-0.1-1.1c-1.2,0-2.4,0-3.6,0c-0.2,0-0.6,0.4-0.7,0.6c-0.3,0.9-0.6,1.7-0.9,2.6
		C-318.4,271.3-319,273.3-319.7,275.4z"/>
	<path fill="#FFFFFF" d="M-229.6,276.9c-0.8,0.2-1.5,0.3-2.5,0.5c0.5,0.8,0.8,1.5,1.3,2c2.1,2.2,7.4,2.2,9.6,0
		c2.1-2.1,1.5-5.6-1.3-6.8c-0.5-0.2-1.1-0.4-1.7-0.5c-1.1-0.3-2.3-0.5-3.3-1c-0.5-0.2-1-1-1-1.5c0-0.5,0.5-1.2,1-1.5
		c1.3-0.8,3.2-0.3,4.1,0.8c0.2,0.2,0.4,0.4,0.6,0.4c0.7-0.1,1.3-0.3,2-0.5c0-0.1,0.1-0.2,0.1-0.3c-0.6-0.6-1.1-1.3-1.8-1.8
		c-1.5-1-3.3-1.1-5.1-0.8c-2.2,0.4-3.6,1.9-3.7,3.9c-0.1,2.4,0.9,3.6,3.3,4.3c1.1,0.3,2.3,0.6,3.4,0.9c1.2,0.4,1.9,1.1,1.8,2
		c0,0.9-0.9,1.8-2.1,1.9C-226.8,279.2-228.6,279.1-229.6,276.9z"/>
	<path fill="#FFFFFF" d="M-193.6,269.9c0,2,0,3.9,0,5.8c0,0.7-0.1,1.3-0.4,1.9c-0.4,1-1.6,1.6-2.5,1.4c-1.1-0.3-1.3-1.1-1.3-2.1
		c0-1.2,0-2.3,0-3.5c0-1.2,0-2.3,0-3.5c-0.9,0-1.6,0-2.4,0c0,1.9,0,3.7,0,5.6c0,0.8,0,1.6,0,2.4c0,1.4,0.8,2.6,2,3
		c1.5,0.5,3.2,0,4-1.2c0.2-0.3,0.4-0.5,0.7-1c0,0.5,0.1,0.7,0.1,0.9c-0.1,0.9,0.3,1.1,1.1,1.1c0.9,0,1.1-0.4,1.1-1.2
		c0-2.5,0-5,0-7.5c0-0.7,0-1.5,0-2.2C-192,269.9-192.7,269.9-193.6,269.9z"/>
	<path fill="#FFFFFF" d="M-290.7,278.9c0.1,0.1,0.1,0.1,0.2,0.2c0,0.2,0.1,0.5,0.1,0.7c-0.1,0.9,0.4,1,1.1,1.1c0.8,0,1-0.4,1-1.1
		c0-3,0-5.9,0-8.9c0-0.3-0.1-0.6-0.1-0.9c-0.7,0-1.4,0-2.2,0c0,1.7,0,3.4,0,5c0,0.9-0.2,1.8-0.4,2.6c-0.3,1-1.5,1.6-2.4,1.5
		c-1-0.2-1.4-0.8-1.4-2.1c0-1.1,0-2.2,0-3.3c0-1.2,0-2.4,0-3.7c-0.9,0-1.6,0-2.4,0c0,2.8-0.1,5.4,0,8.1c0.1,2,1.2,2.9,2.9,3
		C-292.6,281.2-291.5,280.5-290.7,278.9z"/>
	<path fill="#FFFFFF" d="M-258,269.9c-2-0.2-2-0.2-2,1.7c0,0.5,0,0.9,0,1.4c0,2.3,0,4.6,0,6.9c0,1,0.5,1,1.2,1
		c0.7,0,1.2-0.1,1.1-0.9c-0.1-1,0-2,0-3c0-1.1,0-2.3,0.3-3.4c0.2-1.2,1.5-2,2.5-1.9c1,0.2,1.6,1,1.6,2.4c0,2,0,4,0,5.9
		c0,0.9,0.6,0.8,1.1,0.8c0.5,0,1.3,0.3,1.3-0.7c0-2.3,0-4.6,0-6.9c0-1.9-0.9-3-2.5-3.4c-1.6-0.4-2.7,0.1-3.8,1.7
		c-0.1,0.2-0.3,0.4-0.6,0.7C-258,271.3-258,270.7-258,269.9z"/>
	<path fill="#FFFFFF" d="M-163.3,269.9c0,3.5,0,6.9,0,10.3c0,0.9,0.8,0.5,1.3,0.6c0.5,0.1,0.9,0,0.9-0.7c0-1.2-0.1-2.5,0-3.7
		c0.1-1,0.1-2.1,0.4-3.1c0.3-1.1,1.5-1.8,2.4-1.6c1.1,0.2,1.5,1,1.6,2.1c0,0.4,0.1,0.8,0.1,1.2c0,1.7,0,3.4,0,5.1
		c0,1,0.7,0.8,1.3,0.8c0.6,0,1,0,1-0.8c0-2.3,0-4.7,0-7c0-1.7-0.9-2.8-2.4-3.2c-1.5-0.4-2.8,0-3.7,1.4c-0.2,0.3-0.4,0.5-0.5,0.8
		c-0.1,0-0.1-0.1-0.2-0.1c0-0.7-0.1-1.4-0.1-2.1C-162,269.9-162.5,269.9-163.3,269.9z"/>
	<path fill="#FFFFFF" d="M-285,269.9c0,3.5,0,6.9,0,10.3c0,0.9,0.8,0.5,1.3,0.6c0.5,0.1,0.9,0,0.9-0.7c0-1.6,0-3.1,0-4.7
		c0-1.2,0.1-2.4,1.2-3.1c0.5-0.4,1.3-0.5,1.9-0.5c0.8,0.1,1.2,0.8,1.3,1.6c0,0.6,0.1,1.1,0.1,1.7c0,1.6,0,3.2,0,4.9
		c0,1,0.7,0.8,1.2,0.8c0.5,0,1.1,0.1,1-0.8c0-2.4,0-4.7,0-7.1c0-1.7-0.9-2.7-2.5-3.2c-1.5-0.4-2.7,0.1-3.6,1.4
		c-0.2,0.3-0.4,0.5-0.6,0.8c-0.1,0-0.1-0.1-0.2-0.1c0-0.7-0.1-1.3-0.1-2.1C-283.7,269.9-284.3,269.9-285,269.9z"/>
	<path fill="#FFFFFF" d="M-152.3,278.4c-0.1,0.1-0.2,0.2-0.2,0.3c0.6,0.6,1.1,1.3,1.8,1.6c2,1,4.1,0.9,6.1-0.1
		c0.6-0.3,1.1-0.9,1.3-1.5c0.8-2-0.1-3.7-2.2-4.2c-1.2-0.3-2.3-0.5-3.5-0.9c-0.4-0.1-0.8-0.6-0.9-0.9c-0.1-0.3,0.2-0.8,0.5-1.1
		c0.8-0.7,2.4-0.5,3.2,0.2c0.8,0.7,1.4,0.7,2.6-0.1c-0.7-0.6-1.2-1.3-1.9-1.6c-1.5-0.7-3-0.7-4.5-0.1c-1.3,0.5-2.1,1.7-2.1,3.1
		c0,1.3,0.7,2.4,2.2,2.8c1.1,0.4,2.3,0.5,3.4,0.8c0.4,0.1,0.9,0.6,1,1c0.1,0.3-0.3,1-0.6,1.2c-1.1,0.6-2.5,0.8-3.4-0.1
		C-150.5,277.8-151.3,278.3-152.3,278.4z"/>
	<path fill="#FFFFFF" d="M-189.1,271.6c1.3-0.2,1.4,0.6,1.4,1.6c0,1.6,0,3.1,0,4.7c0.1,2.5,1.1,3.4,3.6,3.2c0.5,0,1,0,1.1-0.8
		c0-0.7-0.2-1.1-1-1.1c-1,0-1.5-0.7-1.5-1.7c0-1.5,0.1-3,0-4.4c0-1,0.2-1.4,1.2-1.3c0.7,0.1,1-0.2,1-0.9c0-0.8-0.4-0.9-1.1-0.9
		c-0.3,0-0.7,0-1.2-0.1c0-1,0-1.9,0-2.8c-1.9-0.2-1.9-0.2-2,1.4c0,1.1-0.4,1.7-1.6,1.5C-189.1,270.5-189.1,271-189.1,271.6z"/>
	<path fill="#FFFFFF" d="M-273.9,271.6c1.4-0.2,1.5,0.7,1.4,1.7c-0.1,1.4,0,2.9,0,4.3c-0.1,2.7,1.3,3.6,3.7,3.4
		c0.6-0.1,0.9-0.1,0.9-0.8c0-0.6-0.1-1-0.9-1.1c-1.2-0.1-1.5-0.6-1.5-1.8c0-1.4,0-2.9,0-4.3c0-0.9,0.2-1.4,1.2-1.2
		c0.6,0.1,1.1-0.1,1.1-0.9c0-0.9-0.5-1-1.1-0.9c-0.3,0-0.7,0-1.1-0.1c0-1,0-1.9,0-2.8c-1.8-0.2-2-0.2-2,1.4c0,1.1-0.4,1.7-1.6,1.5
		C-273.9,270.5-273.9,271-273.9,271.6z"/>
	<path fill="#FFFFFF" d="M-205.7,266.2c0,4.7,0,9.3,0,14c0,0.2,0.2,0.5,0.3,0.6c1,0.5,2,0,2-1.2c0-3.9,0-7.8,0-11.8
		c0-1.9,0-2-1.9-1.8C-205.4,266.1-205.5,266.1-205.7,266.2z"/>
	<path fill="#FFFFFF" d="M-263.3,269.9c-0.6,0-0.9,0-1.3,0c-0.7-0.1-1,0.2-1,0.9c0,3,0,6.1,0,9.1c0,0.7,0.3,0.9,0.9,0.9
		c1.3,0,1.4,0,1.4-1.3c0-0.5,0-1,0-1.5C-263.3,275.4-263.3,272.7-263.3,269.9z"/>
	<path fill="#FFFFFF" d="M-178.5,269.9c-0.6,0-1.1,0-1.5,0c-0.6,0-0.7,0.2-0.7,0.8c0,3.1,0,6.3,0,9.4c0,0.3,0.2,0.6,0.4,0.7
		c1.1,0.5,1.9,0,1.9-1.2c0-0.7,0-1.4,0-2.1C-178.5,274.9-178.5,272.5-178.5,269.9z"/>
	<path fill="#FFFFFF" d="M-178.5,265.9c-0.8,0.1-1.6,0-2.1,0.4c-0.3,0.3-0.3,1.5,0,1.7c0.4,0.4,1.3,0.3,2.1,0.4
		C-178.5,267.6-178.5,266.9-178.5,265.9z"/>
	<path fill="#FFFFFF" d="M-263.1,268.6c-0.2-1.1-0.2-1.9-0.5-2.5c-0.2-0.3-1.4-0.2-1.7,0.1c-0.3,0.4-0.4,1.5-0.1,1.8
		C-265,268.5-264.1,268.4-263.1,268.6z"/>
	<path fill="#FFFFFF" d="M-259.3,217.4c-0.5,1.6-0.9,3.1-1.3,4.5c-0.4,1.3-0.9,2.5-1.1,3.9c-0.2,1.2-0.8,1.4-1.9,1.4
		c-11.5,0-23,0-34.5,0c-2.8,0-5.6,0-8.4,0c-2.4,0-3.6,0.9-4.3,3.1c-1.4,4.3-2.8,8.7-4.1,13c-0.1,0.4-0.3,0.9-0.3,1.3
		c-0.2,1.5,0.6,2.7,2.1,3c0.8,0.2,1.5,0.2,2.3,0.2c10.3,0,20.6,0,30.8,0c0.9,0,1.3-0.3,1.6-1.1c0.5-1.5,1.1-3,1.7-4.7
		c-6.3,0-12.3,0-18.6,0c0.2-0.6,0.3-1,0.4-1.4c0.6-1.8,1.1-3.7,1.8-5.5c0.6-1.8,1.3-2.3,3.2-2.3c8.3,0,16.5,0,24.8,0
		c0.3,0,0.7,0,1.2,0c-0.7,2.3-1.3,4.4-2,6.5c-1.8,5.8-3.5,11.7-5.2,17.5c-0.3,1-0.7,1.2-1.6,1.2c-15.7,0-31.4,0-47.1,0
		c-5.3,0-8.7-4.5-7.1-9.5c2.6-8.1,5.2-16.2,8-24.2c0.4-1.1,1.2-2.2,2.1-3c2.4-2.3,5.3-3.8,8.7-3.8c15.9,0,31.7,0,47.6,0
		C-260.2,217.4-259.9,217.4-259.3,217.4z"/>
	<path fill="#FFFFFF" d="M-195,217.5c-0.8,2.6-1.4,5-2.2,7.4c-0.8,2.6-0.8,2.6-3.4,2.6c-13.5,0-27,0-40.5,0c-4.2,0-4.7,0.4-6,4.4
		c-1.3,4.2-2.6,8.3-4,12.5c-0.8,2.5,0.1,4,2.8,4.2c0.7,0.1,1.5,0.1,2.2,0.1c13.4,0,26.8,0,40.2,0c0.5,0,0.9,0,1.5,0
		c-0.2,0.7-0.3,1.3-0.5,1.8c-0.7,2.2-1.3,4.4-2,6.6c-0.2,0.7-0.5,0.9-1.2,0.9c-16,0-31.9,0-47.9,0c-1.1,0-2.2-0.3-3.3-0.7
		c-2.2-0.8-3.6-2.4-3.5-4.9c0-1.8,0.2-3.7,0.7-5.4c2-6.9,4.2-13.7,6.3-20.5c1.6-5.1,6.9-8.9,12.2-8.9c15.7,0,31.5,0,47.2,0
		C-195.9,217.5-195.6,217.5-195,217.5z"/>
	<path fill="#FFFFFF" d="M-130.7,217.5c-9.7,7.3-19.2,14.4-28.8,21.7c5.2,6.2,10.3,12.4,15.6,18.7c-0.4,0-0.7,0.1-0.9,0.1
		c-3.6,0-7.3,0-10.9,0c-0.7,0-1.2-0.2-1.6-0.8c-3.3-3.8-6.6-7.7-9.9-11.5c-0.2-0.3-0.4-0.5-0.7-0.9c-1.6,1.2-3.1,2.2-4.6,3.3
		c-4.3,3.1-8.5,6.2-12.8,9.3c-0.4,0.3-0.9,0.5-1.3,0.5c-4.7,0-9.5,0-14.2,0c-0.2,0-0.3,0-0.8-0.1c9.4-6.8,18.5-13.4,27.7-20.2
		c-5.7-6.7-11.3-13.3-17.1-20.2c2.4,0,4.5,0,6.6,0c1.9,0,3.8,0,5.7,0c0.7,0,1.2,0.2,1.6,0.8c3.4,4.2,6.9,8.3,10.3,12.5
		c0.2,0.3,0.5,0.6,0.8,1c0.4-0.3,0.8-0.6,1.2-0.8c5.9-4.3,11.7-8.5,17.6-12.8c0.5-0.4,1.2-0.6,1.8-0.6c4.5-0.1,9,0,13.5,0
		C-131.7,217.5-131.4,217.5-130.7,217.5z"/>
	<g>
		<path fill="#FCFCFC" d="M-319.7,275.4c0.7-2,1.3-4,2-6.1c0.3-0.9,0.5-1.8,0.9-2.6c0.1-0.3,0.4-0.6,0.7-0.6c1.2-0.1,2.4,0,3.6,0
			c0,0.4,0.1,0.8,0.1,1.1c0,4.2,0,8.4,0,12.6c0,1.1-0.5,1.2-1.3,1.2c-0.8,0-1.4,0-1.3-1.2c0.1-3.4,0-6.8,0-10.2c0-0.4,0-0.8,0-1.1
			c-0.1,0-0.2,0-0.2-0.1c-0.1,0.3-0.2,0.5-0.3,0.8c-1.1,3.6-2.3,7.2-3.4,10.8c-0.2,0.5-0.3,1-1,1c-0.8,0-0.8-0.5-1-1
			c-1.1-3.5-2.3-7-3.4-10.6c-0.1-0.3-0.2-0.6-0.6-0.9c0,0.4-0.1,0.7-0.1,1.1c0,3.4,0,6.8,0,10.2c0,1.2-0.3,1.5-1.5,1.3
			c-0.2-0.1-0.5-0.4-0.5-0.6c0-4.7,0-9.3,0-14.2c1.3,0,2.6,0,3.8,0c0.2,0,0.5,0.5,0.6,0.8c0.8,2.5,1.6,5,2.4,7.4
			c0.1,0.3,0.3,0.7,0.4,1C-319.9,275.4-319.8,275.4-319.7,275.4z"/>
		<path fill="#FCFCFC" d="M-247.5,279.7c-1.3-2.2-1.2-2.3,0.6-4.1c-0.4-0.7-0.9-1.3-1.1-2c-0.5-1.6,0.7-3.4,2.5-3.7
			c1.1-0.2,2.2-0.1,3.2-0.1c0.3,0,0.9-0.2,1-0.4c0.7-1.4,1.8-1.7,3.2-1.5c0,0.5,0,1,0,1.6c-0.4,0.1-0.9,0.1-1.4,0.2
			c-0.8,0.3-0.9,0.7-0.4,1.4c1.4,1.7,1,3.8-1,4.6c-1,0.4-2.3,0.4-3.5,0.5c-0.3,0-0.7-0.2-0.9-0.1c-0.4,0.2-0.9,0.4-1.1,0.8
			c-0.1,0.3,0.2,0.9,0.5,1.1c0.3,0.3,0.9,0.3,1.3,0.3c1.2,0,2.3,0,3.5,0c1.5,0,2.7,0.9,3,2.2c0.4,1.3-0.2,2.7-1.6,3.4
			c-2.6,1.3-5.4,1.3-8.1,0.2c-1.7-0.7-1.8-2.8-0.4-4C-247.8,280-247.6,279.8-247.5,279.7z M-243.4,283.4c0.7-0.1,1.3-0.1,1.8-0.2
			c1-0.2,1.7-0.8,1.6-1.5c-0.2-1-1-1.1-1.8-1.1c-1.3-0.1-2.7-0.1-4-0.2c-0.7,0-1.3,0.6-0.9,1.3c0.2,0.5,0.7,1,1.1,1.1
			C-244.9,283.1-244,283.2-243.4,283.4z M-243.5,274.9c1.3,0,2.1-0.7,2.2-1.9c0-1.1-0.8-1.9-2-1.9c-1.3,0-2.3,0.9-2.3,2
			C-245.6,274.1-244.7,274.9-243.5,274.9z"/>
		<path fill="#FCFCFC" d="M-229.6,276.9c1,2.2,2.8,2.4,4.8,2.1c1.2-0.2,2-1,2.1-1.9c0-1-0.6-1.7-1.8-2c-1.1-0.3-2.3-0.6-3.4-0.9
			c-2.5-0.7-3.4-2-3.3-4.3c0.1-1.9,1.5-3.5,3.7-3.9c1.8-0.3,3.6-0.2,5.1,0.8c0.7,0.5,1.2,1.2,1.8,1.8c0,0.1-0.1,0.2-0.1,0.3
			c-0.7,0.2-1.3,0.4-2,0.5c-0.2,0-0.5-0.2-0.6-0.4c-1-1.1-2.9-1.6-4.1-0.8c-0.5,0.3-1,1-1,1.5c0,0.5,0.5,1.3,1,1.5
			c1,0.5,2.2,0.7,3.3,1c0.6,0.2,1.2,0.3,1.7,0.5c2.7,1.1,3.4,4.7,1.3,6.8c-2.2,2.1-7.4,2.1-9.6,0c-0.5-0.5-0.8-1.2-1.3-2
			C-231.1,277.2-230.4,277-229.6,276.9z"/>
		<path fill="#FCFCFC" d="M-208.2,275.4c0,3.7-2.5,5.9-6.1,5.6c-1.6-0.2-2.7-1.1-3.4-2.5c-0.8-1.7-1-3.4-0.4-5.2
			c0.8-2.5,3-3.9,5.4-3.6c2.5,0.3,4.3,2.3,4.4,5C-208.2,274.9-208.2,275.2-208.2,275.4z M-213.1,271.6c-1.1,0-1.8,0.3-2.2,1.2
			c-0.7,1.6-0.7,3.3-0.1,4.9c0.4,0.9,1.1,1.4,2.1,1.4c1.1,0,1.8-0.5,2.2-1.5c0.6-1.5,0.6-3.1,0-4.6
			C-211.4,272.1-212.1,271.6-213.1,271.6z"/>
		<path fill="#FCFCFC" d="M-171,281c-3,0-5-2.3-5-5.8c0-3.3,2.2-5.6,5.2-5.5c2.9,0,5,2.5,5,5.8C-165.8,278.8-167.9,281.1-171,281z
			 M-170.9,271.6c-1-0.1-1.7,0.4-2.2,1.3c-0.7,1.6-0.7,3.2,0,4.8c0.4,0.9,1.2,1.5,2.3,1.4c1.1-0.1,1.8-0.6,2.1-1.6
			c0.5-1.4,0.5-2.9,0-4.3C-169,272.2-169.7,271.6-170.9,271.6z"/>
		<path fill="#FCFCFC" d="M-299.5,275.5c-0.4,1.2-0.7,2.5-1.4,3.5c-1.2,1.8-3.5,2.5-5.6,1.9c-1.7-0.5-3.2-2.4-3.3-4.4
			c-0.1-1.2,0-2.6,0.4-3.7c0.8-2.3,3.1-3.5,5.4-3.1c2.4,0.4,4.1,2.4,4.2,4.8c0,0.3,0,0.6,0,0.8
			C-299.7,275.4-299.6,275.4-299.5,275.5z M-307.6,275.4c0.2,0.8,0.4,1.7,0.7,2.5c0.4,0.9,1.2,1.4,2.2,1.3c1-0.1,1.7-0.5,2-1.4
			c0.6-1.6,0.6-3.2,0-4.7c-0.4-0.9-1-1.4-2-1.4c-1.1,0-1.9,0.4-2.3,1.4C-307.2,273.7-307.3,274.5-307.6,275.4z"/>
		<path fill="#FCFCFC" d="M-193.6,269.9c0.9,0,1.6,0,2.4,0c0,0.8,0,1.5,0,2.2c0,2.5,0,5,0,7.5c0,0.8-0.2,1.2-1.1,1.2
			c-0.9,0-1.3-0.2-1.1-1.1c0-0.2,0-0.4-0.1-0.9c-0.3,0.4-0.5,0.7-0.7,1c-0.9,1.2-2.5,1.6-4,1.2c-1.1-0.4-1.9-1.5-2-3
			c0-0.8,0-1.6,0-2.4c0-1.8,0-3.7,0-5.6c0.8,0,1.5,0,2.4,0c0,1.2,0,2.3,0,3.5c0,1.2,0,2.3,0,3.5c0,1,0.1,1.9,1.3,2.1
			c0.9,0.2,2.1-0.4,2.5-1.4c0.2-0.6,0.4-1.3,0.4-1.9C-193.6,273.8-193.6,271.9-193.6,269.9z"/>
		<path fill="#FCFCFC" d="M-290.7,278.9c-0.8,1.5-1.9,2.2-3.6,2.1c-1.7-0.1-2.8-1-2.9-3c-0.1-2.7,0-5.4,0-8.1c0.8,0,1.5,0,2.4,0
			c0,1.2,0,2.5,0,3.7c0,1.1,0,2.2,0,3.3c0,1.3,0.5,2,1.4,2.1c0.9,0.2,2.1-0.5,2.4-1.5c0.3-0.8,0.4-1.7,0.4-2.6c0.1-1.7,0-3.3,0-5
			c0.8,0,1.4,0,2.2,0c0,0.3,0.1,0.6,0.1,0.9c0,3,0,5.9,0,8.9c0,0.7-0.1,1.1-1,1.1c-0.8,0-1.2-0.2-1.1-1.1c0-0.2-0.1-0.5-0.1-0.7
			C-290.6,279-290.6,279-290.7,278.9z"/>
		<path fill="#FCFCFC" d="M-258,269.9c0,0.7,0.1,1.4,0.1,2.3c0.3-0.4,0.5-0.5,0.6-0.7c1.1-1.6,2.2-2.1,3.8-1.7
			c1.6,0.4,2.4,1.5,2.5,3.4c0.1,2.3,0,4.6,0,6.9c0,1-0.8,0.7-1.3,0.7c-0.5,0-1.2,0.2-1.1-0.8c0-2,0-4,0-5.9c0-1.4-0.6-2.2-1.6-2.4
			c-1-0.2-2.3,0.7-2.5,1.9c-0.2,1.1-0.2,2.2-0.3,3.4c0,1-0.1,2,0,3c0.1,0.9-0.4,0.9-1.1,0.9c-0.7,0-1.2,0-1.2-1c0-2.3,0-4.6,0-6.9
			c0-0.5,0-0.9,0-1.4C-260.1,269.8-260.1,269.8-258,269.9z"/>
		<path fill="#FCFCFC" d="M-163.3,269.9c0.7,0,1.3,0,2,0c0,0.7,0.1,1.4,0.1,2.1c0.1,0,0.1,0.1,0.2,0.1c0.2-0.3,0.4-0.5,0.5-0.8
			c1-1.4,2.2-1.9,3.7-1.4c1.5,0.5,2.4,1.5,2.4,3.2c0,2.3,0,4.7,0,7c0,0.8-0.5,0.8-1,0.8c-0.6,0-1.3,0.2-1.3-0.8c0-1.7,0-3.4,0-5.1
			c0-0.4,0-0.8-0.1-1.2c-0.1-1-0.5-1.8-1.6-2.1c-0.9-0.2-2.1,0.5-2.4,1.6c-0.3,1-0.4,2.1-0.4,3.1c-0.1,1.2,0,2.5,0,3.7
			c0,0.7-0.4,0.8-0.9,0.7c-0.5-0.1-1.3,0.3-1.3-0.6C-163.3,276.8-163.3,273.4-163.3,269.9z"/>
		<path fill="#FCFCFC" d="M-285,269.9c0.7,0,1.3,0,2,0c0,0.7,0.1,1.4,0.1,2.1c0.1,0,0.1,0.1,0.2,0.1c0.2-0.3,0.4-0.5,0.6-0.8
			c1-1.4,2.2-1.8,3.6-1.4c1.6,0.4,2.4,1.5,2.5,3.2c0.1,2.4,0,4.7,0,7.1c0,0.8-0.5,0.8-1,0.8c-0.6,0-1.3,0.2-1.2-0.8
			c0-1.6,0-3.2,0-4.9c0-0.6-0.1-1.1-0.1-1.7c-0.1-0.8-0.5-1.5-1.3-1.6c-0.6-0.1-1.4,0.1-1.9,0.5c-1.1,0.7-1.1,2-1.2,3.1
			c-0.1,1.6,0,3.1,0,4.7c0,0.7-0.4,0.8-0.9,0.7c-0.5-0.1-1.3,0.4-1.3-0.6C-285.1,276.8-285,273.4-285,269.9z"/>
		<path fill="#FCFCFC" d="M-152.3,278.4c1-0.2,1.8-0.6,2.8,0.4c0.9,0.9,2.3,0.8,3.4,0.1c0.3-0.2,0.7-0.8,0.6-1.2
			c-0.1-0.4-0.6-0.9-1-1c-1.1-0.4-2.3-0.5-3.4-0.8c-1.4-0.5-2.1-1.5-2.2-2.8c0-1.4,0.8-2.6,2.1-3.1c1.5-0.6,3.1-0.6,4.5,0.1
			c0.7,0.3,1.2,1,1.9,1.6c-1.2,0.8-1.8,0.8-2.6,0.1c-0.8-0.7-2.4-0.8-3.2-0.2c-0.3,0.2-0.6,0.7-0.5,1.1c0.1,0.4,0.5,0.8,0.9,0.9
			c1.1,0.4,2.3,0.5,3.5,0.9c2.1,0.6,3,2.3,2.2,4.2c-0.2,0.6-0.8,1.2-1.3,1.5c-2,1.1-4.1,1.1-6.1,0.1c-0.7-0.3-1.2-1.1-1.8-1.6
			C-152.5,278.7-152.4,278.6-152.3,278.4z"/>
		<path fill="#FCFCFC" d="M-189.1,271.6c0-0.6,0-1.1,0-1.7c1.2,0.2,1.6-0.4,1.6-1.5c0-1.6,0.1-1.6,2-1.4c0,0.9,0,1.8,0,2.8
			c0.5,0,0.8,0.1,1.2,0.1c0.6,0,1.1,0,1.1,0.9c0,0.8-0.3,1-1,0.9c-1-0.1-1.3,0.3-1.2,1.3c0.1,1.5,0,3,0,4.4c0,1,0.4,1.6,1.5,1.7
			c0.8,0,1,0.4,1,1.1c0,0.8-0.5,0.8-1.1,0.8c-2.5,0.2-3.5-0.6-3.6-3.2c-0.1-1.6-0.1-3.1,0-4.7C-187.7,272.2-187.8,271.4-189.1,271.6
			z"/>
		<path fill="#FCFCFC" d="M-273.9,271.6c0-0.6,0-1.1,0-1.7c1.3,0.2,1.6-0.4,1.6-1.5c0-1.6,0.2-1.6,2-1.4c0,0.9,0,1.8,0,2.8
			c0.4,0,0.8,0.1,1.1,0.1c0.7,0,1.1,0,1.1,0.9c0,0.8-0.4,1-1.1,0.9c-1-0.1-1.2,0.3-1.2,1.2c0.1,1.4,0,2.9,0,4.3
			c0,1.3,0.3,1.7,1.5,1.8c0.8,0.1,0.9,0.5,0.9,1.1c0,0.7-0.4,0.8-0.9,0.8c-2.4,0.2-3.9-0.6-3.7-3.4c0.1-1.4,0-2.9,0-4.3
			C-272.5,272.3-272.5,271.4-273.9,271.6z"/>
		<path fill="#FCFCFC" d="M-205.7,266.2c0.2-0.1,0.3-0.1,0.4-0.1c1.9-0.2,1.9-0.2,1.9,1.8c0,3.9,0,7.8,0,11.8c0,1.1-0.9,1.7-2,1.2
			c-0.2-0.1-0.3-0.4-0.3-0.6C-205.7,275.5-205.7,270.9-205.7,266.2z"/>
		<path fill="#FCFCFC" d="M-263.3,269.9c0,2.8,0,5.5,0,8.2c0,0.5,0,1,0,1.5c0,1.3-0.1,1.3-1.4,1.3c-0.7,0-0.9-0.3-0.9-0.9
			c0-3,0-6.1,0-9.1c0-0.7,0.3-1,1-0.9C-264.2,269.9-263.8,269.9-263.3,269.9z"/>
		<path fill="#FCFCFC" d="M-178.5,269.9c0,2.6,0,5.1,0,7.5c0,0.7,0,1.4,0,2.1c0,1.2-0.7,1.7-1.9,1.2c-0.2-0.1-0.4-0.5-0.4-0.7
			c0-3.1,0-6.3,0-9.4c0-0.5,0.2-0.8,0.7-0.8C-179.6,269.9-179.1,269.9-178.5,269.9z"/>
		<path fill="#FCFCFC" d="M-178.5,265.9c0,1,0,1.7,0,2.6c-0.8-0.1-1.6,0-2.1-0.4c-0.3-0.3-0.3-1.5,0-1.7
			C-180.2,266-179.3,266.1-178.5,265.9z"/>
		<path fill="#FCFCFC" d="M-263.1,268.6c-1-0.2-1.9-0.2-2.3-0.6c-0.3-0.3-0.2-1.4,0.1-1.8c0.3-0.3,1.5-0.4,1.7-0.1
			C-263.3,266.7-263.3,267.5-263.1,268.6z"/>
	</g>
</g>
</svg>
