<?xml version="1.0" encoding="utf-8"?>
<!-- Generator: Adobe Illustrator 18.1.1, SVG Export Plug-In . SVG Version: 6.00 Build 0)  -->
<!DOCTYPE svg PUBLIC "-//W3C//DTD SVG 1.1//EN" "http://www.w3.org/Graphics/SVG/1.1/DTD/svg11.dtd">
<svg version="1.1" id="Layer_1" xmlns="http://www.w3.org/2000/svg" xmlns:xlink="http://www.w3.org/1999/xlink" x="0px" y="0px"
	 viewBox="0 0 500 500" enable-background="new 0 0 500 500" xml:space="preserve">
<g id="FPO">
</g>
<g id="Global_Nav_Small_Icons">
</g>
<g id="Global_Nav_Small_1_">
</g>
<g id="Bag">
</g>
<g id="Global_Nav_Large_1_">
</g>
<g id="Guides">
</g>
<g id="NOTES">
</g>
<path fill-rule="evenodd" clip-rule="evenodd" fill="#FFFFFF" d="M405,287.3v-59.9H425c1.7,0,3.4,0.1,4.9,0.2
	c3.8,0.3,6.9,0.9,9.5,1.8c3.7,1.3,6.9,3.6,9.5,6.7c4.2,5,6.3,11.7,6.3,19.9c0,9.3-2.5,16.7-7.4,22.5c-2.7,3.2-5.9,5.4-9.4,6.9
	c-2.4,0.9-5.3,1.6-8.5,1.8c-1.5,0.2-3.1,0.2-4.8,0.2H405L405,287.3z M429.9,234.3c-2.5-0.4-5.6-0.6-9.3-0.6h-7.1V281h10.9
	c1.9,0,3.8-0.2,5.4-0.4c5-0.8,8.7-2.8,11.1-5.9c3.5-4.4,5.2-10.4,5.2-17.9c0-7.1-1.7-12.6-5.2-16.6c-2.1-2.5-4.6-4.1-7.4-5.1
	C432.6,234.8,431.3,234.5,429.9,234.3L429.9,234.3z"/>
<path fill-rule="evenodd" clip-rule="evenodd" fill="#FFFFFF" d="M43.5,287.3v-59.9h8c0,64.9,0-39.9,0,59.9H43.5L43.5,287.3z"/>
<polygon fill-rule="evenodd" clip-rule="evenodd" fill="#FFFFFF" points="97.7,287.3 97.7,227.4 138.5,227.4 138.5,233.7 
	106.2,233.7 106.2,253 136.5,253 136.5,259.3 106.2,259.3 106.2,281 139.2,281 139.2,287.3 97.7,287.3 "/>
<polygon fill-rule="evenodd" clip-rule="evenodd" fill="#FFFFFF" points="148.5,287.3 148.5,227.4 156.9,227.4 188.1,274.7 
	188.1,227.4 195.5,227.4 195.5,287.3 186.1,287.3 155.9,241.1 155.9,287.3 148.5,287.3 "/>
<polygon fill-rule="evenodd" clip-rule="evenodd" fill="#FFFFFF" points="219,287.3 203.5,227.4 211.7,227.4 224,274.9 237.6,227.3 
	245.6,227.4 259.3,276.2 271.5,227.4 279.5,227.4 262.7,287.3 255.2,287.3 241.6,238.1 227.4,287.3 219,287.3 "/>
<path fill-rule="evenodd" clip-rule="evenodd" fill="#FFFFFF" d="M308.8,282.5c6,0,10.7-2.2,14-6.6c3.3-4.4,5-10.7,5-18.5
	c0-7.8-1.7-14-5-18.4c-3.3-4.4-8.1-6.6-14-6.6c-6,0-10.7,2.2-14,6.6c-3.3,4.4-5,10.6-5,18.4c0,7.8,1.7,14.1,5,18.5
	C298.1,280.3,302.8,282.5,308.8,282.5L308.8,282.5z M308.8,225.9c8.5,0,15.3,2.9,20.5,8.6c5.1,5.7,7.6,13.4,7.6,22.9
	c0,9.5-2.6,17.2-7.6,22.9c-5.1,5.7-11.9,8.6-20.5,8.6c-8.5,0-15.3-2.9-20.5-8.6c-5.1-5.8-7.6-13.4-7.6-22.9c0-9.5,2.6-17.2,7.6-22.9
	C293.5,228.8,300.3,225.9,308.8,225.9L308.8,225.9z"/>
<path fill-rule="evenodd" clip-rule="evenodd" fill="#FFFFFF" d="M370,282.5c6,0,10.7-2.2,14-6.6c3.3-4.4,5-10.7,5-18.5
	c0-7.8-1.7-14-5-18.4c-3.3-4.4-8.1-6.6-14-6.6s-10.7,2.2-14,6.6c-3.3,4.4-5,10.6-5,18.4c0,7.8,1.7,14.1,5,18.5
	C359.3,280.3,364,282.5,370,282.5L370,282.5z M370,225.9c8.5,0,15.3,2.9,20.5,8.6c5.1,5.7,7.6,13.4,7.6,22.9
	c0,9.5-2.6,17.2-7.6,22.9c-5.1,5.7-11.9,8.6-20.5,8.6s-15.3-2.9-20.5-8.6c-5.1-5.8-7.6-13.4-7.6-22.9c0-9.5,2.6-17.2,7.6-22.9
	C354.7,228.8,361.5,225.9,370,225.9L370,225.9z"/>
<path fill-rule="evenodd" clip-rule="evenodd" fill="#FFFFFF" d="M51.6,256.1l23.7-28.7h9L60.8,256l27.7,31.3h-9.9
	C73.8,281.9,72.8,281,51.6,256.1L51.6,256.1z"/>
</svg>
