<?xml version="1.0" encoding="UTF-8"?>
<svg width="547px" height="549px" viewBox="0 0 547 549" version="1.1" xmlns="http://www.w3.org/2000/svg" xmlns:xlink="http://www.w3.org/1999/xlink">
    <!-- Generator: Sketch 46.2 (44496) - http://www.bohemiancoding.com/sketch -->
    <title>NBC_logo</title>
    <desc>Created with Sketch.</desc>
    <defs></defs>
    <g id="Page-1" stroke="none" stroke-width="1" fill="none" fill-rule="evenodd">
        <g id="NBC_logo" fill-rule="nonzero" fill="#FFFFFF">
            <path d="M64.707,89.207 C42.042,109.724 33.793,156.212 74.65,183.388 L237.643,295.213 L158.612,114.154 C142.052,71.428 96.748,62.111 64.707,89.207" id="path3115"></path>
            <path d="M205.012,1.176 C178.518,1.715 138.735,33.266 156.44,81.444 L238.176,274.215 L266.899,71.457 C273.546,21.076 235.419,-2.181 205.012,1.176" id="path3117"></path>
            <path d="M279.657,63.725 L295.112,63.725 C295.112,63.725 303.366,63.725 304.489,67.618 C298.407,72.585 281.85,73.207 284.048,99.739 L310.032,274.189 L391.212,80.911 C407.817,37.756 372.962,1.715 342.044,0.613 C340.601,0.509 339.151,0.425 337.653,0.425 C309.901,0.424 278.1,20.592 279.657,63.725" id="path3119"></path>
            <path d="M387.944,115.795 L311.159,294.681 L474.106,182.266 C511.667,155.624 505.608,113.03 484.583,91.977 C475.769,82.068 459.585,74.413 442.44,74.413 C422.186,74.41 400.509,85.153 387.944,115.795" id="path3121"></path>
            <path d="M455.862,207.72 L302.835,314.607 L491.253,314.607 C529.909,314.607 554.751,274.748 543.708,238.173 C536.312,215.184 514.429,197.137 489.03,197.111 C478.339,197.116 467.001,200.336 455.862,207.72" id="path3123"></path>
            <path d="M60.316,314.607 L245.954,314.607 L92.89,207.72 C57.53,185 17.767,198.294 3.413,235.996 C-8.754,279.156 21.625,314.607 60.316,314.607" id="path3125"></path>
            <path d="M265.901,460.85 L300.339,460.85 C308.255,461.348 322.288,468.26 322.288,484.629 C322.288,501.75 307.724,508.658 299.833,509.438 L265.901,509.438 L265.901,460.85 M265.376,384.629 L293.722,384.629 C303.411,385.152 314.868,392.312 314.868,405.605 C314.868,418.644 306.206,427.334 294.999,428.883 L265.376,428.883 L265.376,384.629 M226.622,352.91 L226.622,541.125 L317.946,541.125 C339.622,541.125 365.389,519.4 365.389,491.012 C365.389,461.352 346.012,446.785 333.752,440.899 C333.752,440.899 356.201,427.859 355.203,399.721 C354.182,361.871 319.217,352.91 307.23,352.91 L226.622,352.91" id="path3127"></path>
            <polygon id="polygon3129" points="86.549 541.125 86.549 432.719 204.919 548.285 204.919 352.91 165.143 352.91 165.143 458.543 46.745 345.256 46.745 541.125"></polygon>
            <path d="M371.784,444.979 C372.782,504.5 415.548,549 470.526,549 C483.561,549 497.294,546.533 511.329,541.125 L511.329,502.775 C500.206,509.572 487.829,512.849 475.702,512.849 C442.432,512.849 411.04,488.23 412.339,443.451 C414.581,407.127 444.318,382.045 476.366,382.045 C488.102,382.045 500.173,385.426 511.329,392.812 L511.329,355.49 C498.321,350.217 485.391,347.859 472.936,347.859 C418.096,347.858 372.837,394.117 371.784,444.979" id="path3131"></path>
        </g>
    </g>
</svg>