<?xml version="1.0" encoding="utf-8"?>
<!-- Generator: Adobe Illustrator 18.1.1, SVG Export Plug-In . SVG Version: 6.00 Build 0)  -->
<!DOCTYPE svg PUBLIC "-//W3C//DTD SVG 1.1//EN" "http://www.w3.org/Graphics/SVG/1.1/DTD/svg11.dtd">
<svg version="1.1" id="Layer_1" xmlns="http://www.w3.org/2000/svg" xmlns:xlink="http://www.w3.org/1999/xlink" x="0px" y="0px"
	 viewBox="0 0 500 500" enable-background="new 0 0 500 500" xml:space="preserve">
<g id="FPO">
</g>
<g id="Global_Nav_Small_Icons">
</g>
<g id="Global_Nav_Small_1_">
</g>
<g id="Bag">
</g>
<g id="Global_Nav_Large_1_">
</g>
<g id="Guides">
</g>
<g id="NOTES">
</g>
<g>
	<path fill="#FFFFFF" d="M371.6,93.9h-243c-21.5,0-39.1,17.6-39.1,39.1v234.1c0,21.5,17.6,39.1,39.1,39.1h242.8
		c21.5,0,39.1-17.4,39.1-39.1V132.9C410.5,111.5,392.9,93.9,371.6,93.9z M128.4,390.6c-12.8,0-23.3-10.4-23.3-23.3v-234
		c0-13,10.4-23.3,23.3-23.3h46.5c-7.8,3-8.7,6.3-9,16.9c-1.1,0.2-3.9-1.1-3,5.4c0,0,0.6,4.3,2.3,3.6c-1.7,11.1,0.2,12-11.5,12.6
		l-0.6,0.9c-11.7,1.1-15.4-0.4-25.2,19.6c0,0-2.6,6.1-3.3,8.7c-2.6,5-8.6,16.3-10.2,23.6c-0.6,2.6-1.7,3.3,0,6.9
		c2.3,5.2-1.5,6.5,11.7,6.1v3c0,0-3.6,3-4.3,4.8s-2.6,10.9-2.6,15.2c0.4,11.3,9.4,20.7,12.3,32.1l6.1,0.9
		c3.6,7.8,18.6,28.9,21.5,31.7c0.7,2,4.4,4.4,6.7,6.9c1.7,1.7,12.6,13.6,25.2,20.7c-0.2,0,1.9,4.3,3,7.6c-4.1,3.3,4.1,9.6,6.5,19.9
		c0,1.3-2.4,2.6,1.3,6.1c-0.2,15.4-5,23.6,3,27.8h-76.4V390.6z M394.6,367.2c0,11.7-8.6,21.3-19.6,23.2l-166.8-0.2
		c10.2-6.1,3.9-18,2-24.9c-0.2-0.4,0.2-0.9,0.4-1.3c0.6-0.9-0.6-3.1-0.6-3.1c-1.3-1.1-1.5-6.9-2.3-9.4c-1.1-4.4,2-11.9,2-14.5
		s-2-6.1-5.6-10.6c-0.9-0.9-3.6-23-5.7-28.6c-3.1-7.6-4.1-6.5-8-15.6c-3-6.5-0.6-15.9-7.3-38c0,0.2,1.5-1.3,1.5-1.3
		s-5.2-19.1-6.9-24.3c-1.7-5.2-4.8-5.6-4.8-5.6s0-2.3,0.2-2.6c0.2-0.9,6.3-16.9,6.9-17.2c0-0.4,8.9-6.3,9-5.4
		c0.7,3.9,4.1,23.7,5.6,26.9c1.5,3.1,6.5,13,8.9,18.9c-9,2.3-15.9,10.4-15.9,20.2c0,11.5,9.3,20.7,20.7,20.7
		c8.7,0,16.3-5.4,19.5-13.2c1.7-5.6,1.7-10.6,0-15.4c-0.7-1.7-1.5-3.3-2.7-4.8c0-3.1-3.3-3.1-4.3-4.3c-1-1.1,0.9-1.7-5-3
		c-1.1-0.6-1.9-9.3-1.9-9.3c-0.9-5.4-2.7-9.3-5.7-15c-1.5-3-2.3-12.3-3.7-17c0.9-21.7-6.1-28-11.7-31.5c-2.3-1.3-3.3-2.4-5.4-3.6
		v-0.9c-1.7-1.7-5-3.1-7.8-4.4c-0.7-0.9-0.4-2.7,0.2-3.3c1.9-0.2,4.3-4.4,6.3-8.7c1.5,0.2,2-1.5,2.6-2.4c1.7-2.7,3.6-5.2,1.1-6.7
		c5.4-9.4,1.9-15.9-0.9-16.3c-1.3-2.4-3.1-3.9-6.9-5.2h189.1c13,0,23.3,10.4,23.3,23.3v234.3H394.6z"/>
	<polygon fill="#FFFFFF" points="255.9,294.7 255.9,235.6 235.1,235.6 235.1,215.8 298,215.8 298,235.6 277.2,235.6 277.2,294.7 	
		"/>
	<polygon fill="#FFFFFF" points="387.9,215.8 346.4,294.7 305.2,215.8 330.4,215.8 346.4,250.2 362.7,215.8 	"/>
	<g>
		<path fill="#FFFFFF" d="M119.9,338.6h8l5.6,19.3l0.2,1.5l0,0v-20.6h7v35h-7.8l-5.7-20.4l-0.2-1.3l0,0v21.7h-7L119.9,338.6
			L119.9,338.6z"/>
		<path fill="#FFFFFF" d="M143.4,338.6h11.5c5.9,0,8.7,2.3,8.7,8.2c0,3.7-0.6,6.9-4.4,8.2l0,0c3.9,0.7,5.4,3.7,5.4,8.2
			c0,5.9-2.3,10.4-9.3,10.4h-11.7v-34.9H143.4z M151.7,367.8h2.4c2.6,0,3-1.3,3-4.8c0-2.4-0.4-4.8-2.7-4.8h-2.6L151.7,367.8
			L151.7,367.8z M151.7,352.4h2.3c2.6,0,2.7-1.9,2.7-4.1c0-2.4-0.6-3.9-2.6-3.9h-2.6v8H151.7z"/>
		<path fill="#FFFFFF" d="M171,338.6h10.7l6.7,35h-8.6l-0.7-7.8h-5.7l-0.7,7.8h-8.2L171,338.6z M176.4,344.8l-2,15.7h4.1
			L176.4,344.8l0.2-0.7l0,0L176.4,344.8z"/>
	</g>
</g>
</svg>
