<?xml version="1.0" encoding="utf-8"?>
<!-- Generator: Adobe Illustrator 18.1.1, SVG Export Plug-In . SVG Version: 6.00 Build 0)  -->
<!DOCTYPE svg PUBLIC "-//W3C//DTD SVG 1.1//EN" "http://www.w3.org/Graphics/SVG/1.1/DTD/svg11.dtd">
<svg version="1.1" id="Layer_1" xmlns="http://www.w3.org/2000/svg" xmlns:xlink="http://www.w3.org/1999/xlink" x="0px" y="0px"
	 viewBox="-337.9 150 217.8 202" enable-background="new -337.9 150 217.8 202" xml:space="preserve">
<g>
	<g>
		<path fill="#FFFFFF" d="M-270.1,267.4c-4.6,0-7.5-1.7-8.8-2.8l-0.1-0.1l0.1-0.1l1.9-3l0.1-0.2l0.2,0.1c1.1,0.8,3.5,2.2,6.6,2.2
			c2.7,0,4.3-1.2,4.3-3.2c0-2.3-1.8-2.9-5.2-4.1l-0.4-0.1c-3.4-1.2-6.5-2.9-6.5-7.4c0-4.1,3.1-6.7,8-6.7c2.9,0,5.1,0.5,7,1.7
			l0.2,0.1l-0.1,0.2l-1.5,3.2l-0.1,0.2l-0.2-0.1c-1.6-0.8-3.4-1.3-5.3-1.3c-1.7,0-3.8,0.5-3.8,2.7c0,2.2,1.6,2.7,4.9,3.8
			c3.5,1.1,7.3,2.8,7.3,7.9C-261.5,264.7-264.7,267.4-270.1,267.4L-270.1,267.4z"/>
	</g>
	<g>
		<path fill="#FFFFFF" d="M-258,273.5c-0.8,0-1.6-0.1-2.6-0.3l-0.2,0l0-0.2l0.5-3l0-0.2l0.2,0l0.3,0c0.5,0.1,0.8,0.1,1.3,0.1
			c1.7,0,2.8-0.6,3.5-2.1l-6.4-18.7l-0.1-0.3h0.3h4.3h0.1l0,0.1l3.7,13.2l3.3-13.2l0-0.1h0.2h4.1h0.3l-0.1,0.2l-5.7,18.5
			C-252.1,271.7-254.4,273.5-258,273.5L-258,273.5z"/>
	</g>
	<g>
		<path fill="#FFFFFF" d="M-219.2,267.1h-0.2h-4.2h-0.2v-0.2V255c0-1.5-0.3-2.5-1.8-2.5c-1,0-2.3,0.6-3.5,1.8v12.6v0.2h-0.2h-4.2
			h-0.2v-0.2V255c0-1.5-0.3-2.5-1.8-2.5c-1.1,0-2.4,0.7-3.5,1.9v12.6v0.2h-0.2h-4.2h-0.2v-0.2v-17.7V249h0.2h2.5h0.1l0,0.1l0.8,2.5
			c1.9-2,3.8-3,5.8-3c2.6,0,3.6,1.4,4.2,2.7c1.3-1.3,3.2-2.7,5.7-2.7c4.1,0,4.9,3.5,4.9,6.4v11.9V267.1L-219.2,267.1z"/>
	</g>
	<g>
		<path fill="#FFFFFF" d="M-211.4,267.4c-3.3,0-5.7-2.2-5.7-5.2c0-2,0.7-3.4,2.2-4.4c1.5-1,4-1.8,7.9-2.3V255c0-2-0.7-2.7-2.7-2.7
			c-1.7,0-3.3,0.7-4.9,1.4l-0.2,0.1l-0.1-0.2l-1.5-2.7l-0.1-0.2l0.2-0.1c2.3-1.4,4.4-2,6.9-2c4.5,0,6.8,2.3,6.8,6.7v11.6v0.2h-0.2
			h-2.5h-0.1l0-0.1l-0.8-1.8C-207.2,266.2-209,267.4-211.4,267.4L-211.4,267.4z M-207,258.5c-3,0.6-4.5,1.1-5,1.9
			c-0.4,0.4-0.5,0.8-0.5,1.5c0,1.4,0.7,2.1,2.1,2.1c1.1,0,2.4-0.5,3.4-1.3V258.5L-207,258.5z"/>
	</g>
	<g>
		<path fill="#FFFFFF" d="M-183.7,267.1h-0.2h-4.2h-0.2v-0.2V255c0-1.8-0.6-2.5-2.1-2.5c-1.2,0-2.6,0.7-3.7,1.9v12.5v0.2h-0.2h-4.2
			h-0.2v-0.2v-17.7V249h0.2h2.5h0.1l0,0.1l0.8,2.5c1.9-2,3.9-3,6-3c3.4,0,5.2,2.2,5.2,6.4v11.9V267.1L-183.7,267.1z"/>
	</g>
	<g>
		<path fill="#FFFFFF" d="M-174.2,267.4c-3.6,0-5.3-1.8-5.3-5.4v-9.7h-2.5h-0.2V252v-2.9V249h0.2h2.5l0.8-4.9l0-0.2h0.2h3.3h0.2v0.2
			v4.9h3.6h0.2v0.2v2.9v0.2h-0.2h-3.6v9.5c0,1.6,0.3,2.1,1.8,2.1c0.5,0,1.2-0.1,1.9-0.3l0.2-0.1l0,0.2l0.5,2.9l0,0.2l-0.1,0.1
			C-171.1,266.9-172.4,267.4-174.2,267.4L-174.2,267.4z"/>
	</g>
	<g>
		<path fill="#FFFFFF" d="M-161.6,267.4c-5.1,0-8.2-3.5-8.2-9.3c0-5.8,3.1-9.5,7.9-9.5c4.9,0,7.7,3.5,7.7,9.6v1.1v0.2h-0.2h-10.7
			c0.2,2.9,1.4,4.2,3.8,4.2c2,0,3.3-0.7,4.6-1.6l0.2-0.1l0.1,0.2l1.7,2.6l0.1,0.1l-0.1,0.1C-156.5,266.3-158.1,267.4-161.6,267.4
			L-161.6,267.4z M-165.1,256.4h6.2c-0.1-3-1.1-4.4-3-4.4C-163.8,252-164.8,253.5-165.1,256.4L-165.1,256.4z"/>
	</g>
	<g>
		<path fill="#FFFFFF" d="M-144.1,267.4c-6,0-8.2-4.8-8.2-9.3c0-4.4,2.1-9.5,8.2-9.5c2.5,0,4.2,0.6,5.8,2l0.1,0.1l-0.1,0.1l-1.9,2.7
			l-0.1,0.2l-0.2-0.1c-1-0.8-2-1.2-3.6-1.2c-2.3,0-3.5,1.9-3.5,5.7c0,3.7,1.2,5.5,3.6,5.5c1.6,0,2.7-0.6,3.7-1.5l0.2-0.1l0.1,0.2
			l2,2.5l0.1,0.1l-0.1,0.1C-139.7,266.6-141.6,267.4-144.1,267.4L-144.1,267.4z"/>
	</g>
</g>
<g>
	<g>
		<path fill="#FFFFFF" d="M-305.6,277.2c-12.5,0-22.6-10.1-22.6-22.6c0-12.5,10.1-22.6,22.6-22.6c12.5,0,22.6,10.1,22.6,22.6
			C-283,267-293.1,277.2-305.6,277.2L-305.6,277.2z M-305.6,239.1c-4.1,0-8,1.6-10.9,4.5c-2.9,2.9-4.5,6.8-4.5,10.9
			c0,4.1,1.6,8,4.5,10.9c2.9,2.9,6.8,4.5,10.9,4.5c4.1,0,8-1.6,10.9-4.5c2.9-2.9,4.5-6.8,4.5-10.9c0-4.1-1.6-8-4.5-10.9
			C-297.6,240.7-301.5,239.1-305.6,239.1L-305.6,239.1z"/>
	</g>
</g>
<g>
	<path fill="#FFFFFF" d="M-134.7,264.5h-0.7v-0.4h2v0.4h-0.7v2.3h-0.6V264.5z M-132.9,264.1h0.8l0.5,2l0.5-2h0.8v2.7h-0.6v-2.1
		l-0.6,2.1h-0.5l-0.6-2.1v2.1h-0.5V264.1z"/>
</g>
<g>
	<rect x="-281" y="228.4" fill="#FFFFFF" width="1.8" height="1.8"/>
	<rect x="-281" y="224.9" fill="#FFFFFF" width="1.8" height="1.8"/>
	<rect x="-285.9" y="230.2" fill="#FFFFFF" width="1.6" height="1.7"/>
	<rect x="-289.2" y="233.6" fill="#FFFFFF" width="1.7" height="1.6"/>
	<rect x="-284.3" y="231.9" fill="#FFFFFF" width="1.8" height="1.7"/>
	<rect x="-290.8" y="232" fill="#FFFFFF" width="1.7" height="1.6"/>
	<rect x="-285.9" y="233.6" fill="#FFFFFF" width="1.6" height="1.6"/>
	<rect x="-282.7" y="226.7" fill="#FFFFFF" width="1.7" height="1.7"/>
	<rect x="-285.9" y="228.4" fill="#FFFFFF" width="3.2" height="1.7"/>
	<rect x="-287.5" y="230.2" fill="#FFFFFF" width="1.6" height="3.4"/>
	<path fill="#FFFFFF" d="M-287.5,235.2v1.7h-1.7v-1.7h-2.8v1.2h-1.5v1.5h1.6v1.6h-1.6v-1.6h-1.8v2.6h-1.7v1.6h-1.1v1.7h-1.2
		c-1.4,2-4.8,8.3-5.8,10.9c-3.7-5.2-6.6-7.2-8.9-8c-1.2-0.4-2.7,1-0.7,3.1c4.7,5.1,6.1,9.4,7.6,12.8c0.8,1.8,4.1,2.1,4.8,0.2
		c1.4-3.8,3.5-8.2,6-11.7v-1.8h1.3v-1.7h1.4v-1.9h1.7v-1.9h-1.7v-1.7h1.7v1.7h1.6l0-1.7h1.3v-2h1.5v-1.4h1.4v-3.5H-287.5z"/>
</g>
</svg>
