<?xml version="1.0" encoding="UTF-8"?>
<svg width="1684px" height="739px" viewBox="0 0 1684 739" version="1.1" xmlns="http://www.w3.org/2000/svg" xmlns:xlink="http://www.w3.org/1999/xlink">
    <!-- Generator: Sketch 46.2 (44496) - http://www.bohemiancoding.com/sketch -->
    <title>USA_Network_logo_(2016)</title>
    <desc>Created with Sketch.</desc>
    <defs></defs>
    <g id="Page-1" stroke="none" stroke-width="1" fill="none" fill-rule="evenodd">
        <g id="USA_Network_logo_(2016)" transform="translate(-1.000000, -2.000000)" fill-rule="nonzero" fill="#FFFFFF">
            <g id="g10" transform="translate(843.666667, 370.846663) scale(-1, 1) rotate(-180.000000) translate(-843.666667, -370.846663) translate(0.666667, 0.346663)">
                <g id="g12" transform="translate(0.200000, 0.200000)">
                    <path d="M1474.82663,668.65465 C1428.7333,712.699982 1366.58663,736.678648 1303.25463,738.946648 C1240.06264,741.286648 1176.19064,722.714649 1124.55997,686.139983 C1079.35464,654.121317 1044.29331,609.154651 1020.20664,559.626653 C990.582642,585.781319 959.941309,611.105318 922.92531,626.067984 C888.543978,640.045317 846.885312,646.485317 811.870646,630.713318 C796.02798,623.594651 782.38398,611.993318 773.643981,596.923985 C764.806648,581.578652 761.209314,563.281319 763.137314,545.667986 C765.031981,528.64132 772.493314,513.370654 784.729314,501.378654 C797.62798,488.818654 814.02798,480.594655 830.573313,473.861321 C849.567979,466.095988 869.306645,460.546655 888.893311,454.605322 C907.578644,448.903989 926.17331,443.039989 944.430643,436.106656 C979.735976,422.675989 1014.45197,405.098657 1041.85997,378.631991 C1096.76131,325.362659 1114.49064,244.613327 1105.28531,170.519996 C1102.72797,149.64533 1097.74131,129.054663 1090.25197,109.375464 C1088.44531,104.743731 1086.61864,100.134397 1084.57597,95.6354643 C1084.00131,94.4390643 1083.15064,92.1302644 1083.15064,92.1302644 C1083.15064,92.1302644 1087.59331,87.2583978 1089.56664,85.3635979 C1095.75864,79.1765314 1102.29464,73.2791982 1109.06664,67.657865 C1134.0453,46.9759988 1162.5613,30.6869326 1192.9493,19.2374662 C1253.30664,-3.41770658 1321.4013,-6.88645316 1382.74663,14.016133 C1417.1333,25.765066 1449.42663,45.1682655 1474.82663,71.3791982 L1474.82663,10.4557331 L1684.13329,10.4557331 L1684.13329,729.209315 L1474.82663,729.209315 L1474.82663,668.65465 Z M1335.2933,190.258662 C1302.59197,190.258662 1271.5693,203.294662 1247.2573,224.707994 C1221.1013,247.653327 1203.2173,278.915993 1193.5613,312.195992 C1173.97864,380.013324 1189.89464,459.786655 1241.0933,510.083987 C1265.12797,533.675987 1296.7213,548.414653 1330.5693,549.411986 C1364.43997,550.478653 1397.83997,537.863987 1423.62663,516.006654 C1468.39996,477.975988 1488.87996,416.090656 1486.03996,358.487991 C1483.11996,300.627992 1455.75996,241.645327 1405.3333,210.361328 C1384.3733,197.374662 1359.90663,190.258662 1335.2933,190.258662 L1335.2933,190.258662 Z M696.375983,306.639992 C686.573316,310.493326 676.881316,314.721325 667.493317,319.351992 C649.72665,328.223992 632.614651,338.714658 617.194651,351.386658 C589.001319,374.775991 568.351986,405.42799 556.059986,439.902656 C543.483986,475.170655 539.026653,513.607987 541.266653,550.959986 C543.575986,590.893319 554.307986,630.235984 574.102652,665.11465 C589.618652,692.485316 610.194651,716.793315 634.238651,737.046648 C589.834652,737.046648 423.378656,736.974648 423.378656,736.974648 C423.378656,736.974648 423.037323,514.587987 423.037323,425.978656 L423.037323,359.617324 C423.037323,339.050658 422.603989,318.409325 420.114656,297.986659 C415.597323,261.70666 403.84399,219.454661 369.619991,200.309328 C353.057325,191.050662 333.738658,188.285329 314.978659,188.966662 C296.147993,189.591995 277.11066,194.402662 261.987993,206.063995 C232.006661,229.097328 222.561328,270.469327 219.226661,306.198659 C217.295995,325.987992 217.295995,345.870658 217.295995,365.698658 L217.295995,432.230656 L217.295995,736.974648 L0.284895993,737.086648 C0.284895993,737.086648 0.433333323,441.139989 0.14583333,352.531991 C0.0197915995,309.442659 0.635417317,266.049327 9.61093309,223.733328 C17.4114662,186.366662 31.3286659,149.902663 52.8983987,118.304664 C73.7515982,87.6311978 101.724531,62.6573318 133.94533,44.4734656 C168.546662,24.8635994 207.326661,13.5562663 246.570661,7.82030647 C285.99466,2.02863995 326.546659,1.29270797 366.227991,4.68281322 C404.16799,7.96718647 441.942656,15.6401329 477.105321,30.2499992 C510.538654,44.1745322 540.935986,64.4098651 565.449319,91.0765311 C588.794652,116.53333 606.430652,146.870663 618.147985,179.259996 C619.085318,181.881329 620.019984,184.577329 620.885318,187.194662 C646.695984,161.761329 675.045316,138.14933 707.481316,121.625464 C739.363982,105.277064 776.775981,95.5802643 812.629313,101.905197 C830.362646,105.042664 847.373312,112.623464 860.405312,125.144797 C872.866645,136.990663 881.091978,152.77733 884.077311,169.669329 C886.883978,185.607995 885.374645,202.499995 878.290645,217.201328 C871.739978,230.706661 860.921312,241.659994 848.523979,250.01866 C830.666646,262.213327 809.473313,269.659993 788.906647,276.35866 C766.017314,283.827993 731.709315,293.858659 723.502649,296.719993 C715.181315,299.541326 700.889316,304.815992 696.375983,306.639992 L696.375983,306.639992 Z" id="path14"></path>
                </g>
            </g>
        </g>
    </g>
</svg>