<?xml version="1.0" encoding="utf-8"?>
<!-- Generator: Adobe Illustrator 18.1.1, SVG Export Plug-In . SVG Version: 6.00 Build 0)  -->
<!DOCTYPE svg PUBLIC "-//W3C//DTD SVG 1.1//EN" "http://www.w3.org/Graphics/SVG/1.1/DTD/svg11.dtd">
<svg version="1.1" id="Layer_1" xmlns="http://www.w3.org/2000/svg" xmlns:xlink="http://www.w3.org/1999/xlink" x="0px" y="0px"
	 viewBox="-337.9 150 217.8 202" enable-background="new -337.9 150 217.8 202" xml:space="preserve">
<g id="FPO">
</g>
<g id="Global_Nav_Small_Icons">
</g>
<g id="Global_Nav_Small_1_">
</g>
<g id="Bag">
</g>
<g id="Global_Nav_Large_Icons">
	<path id="Apple" fill="#FFFFFF" d="M-150.7,292c-1,3-2.1,5.9-3.3,8.6c-2.8,6.5-6.1,12.5-10,17.9c-5.2,7.5-9.5,12.7-12.8,15.5
		c-5.1,4.7-10.6,7.1-16.5,7.3c-4.2,0-9.3-1.2-15.3-3.6c-6-2.4-11.4-3.6-16.4-3.6c-5.2,0-10.9,1.2-16.9,3.6c-6,2.4-10.9,3.7-14.6,3.8
		c-5.6,0.2-11.3-2.2-16.9-7.5c-3.6-3.1-8.1-8.5-13.4-16.1c-5.8-8.1-10.5-17.5-14.2-28.2c-4-11.6-6-22.8-6-33.7
		c0-12.4,2.7-23.2,8.1-32.2c4.2-7.2,9.9-12.9,16.9-17.1c7-4.2,14.7-6.3,22.9-6.4c4.5,0,10.4,1.4,17.7,4.1c7.3,2.7,12,4.1,14,4.1
		c1.5,0,6.7-1.6,15.5-4.9c8.3-3,15.4-4.2,21.1-3.8c15.6,1.3,27.3,7.4,35.1,18.5c-14,8.5-20.9,20.3-20.7,35.5
		c0.1,11.8,4.4,21.7,12.9,29.5C-159.8,287.2-155.5,290-150.7,292z M-190,156c0.1,1.2,0.2,2.5,0.2,3.7c0,9.3-3.4,18-10.1,26
		c-8.2,9.5-18,15-28.7,14.2c-0.1-1.1-0.2-2.3-0.2-3.5c0-8.9,3.9-18.4,10.8-26.2c3.4-3.9,7.8-7.2,13.1-9.8
		C-199.7,157.7-194.7,156.2-190,156z"/>
</g>
<g id="Global_Nav_Large_1_">
</g>
<g id="Guides">
</g>
<g id="NOTES">
</g>
</svg>
