<?xml version="1.0" encoding="utf-8"?>
<!-- Generator: Adobe Illustrator 18.1.1, SVG Export Plug-In . SVG Version: 6.00 Build 0)  -->
<!DOCTYPE svg PUBLIC "-//W3C//DTD SVG 1.1//EN" "http://www.w3.org/Graphics/SVG/1.1/DTD/svg11.dtd">
<svg version="1.1" id="Layer_1" xmlns="http://www.w3.org/2000/svg" xmlns:xlink="http://www.w3.org/1999/xlink" x="0px" y="0px"
	 viewBox="-337.9 150 217.8 202" enable-background="new -337.9 150 217.8 202" xml:space="preserve">
<g id="FPO">
</g>
<g id="Global_Nav_Small_Icons">
</g>
<g id="Global_Nav_Small_1_">
</g>
<g id="Bag">
</g>
<g id="Global_Nav_Large_1_">
</g>
<g id="Guides">
</g>
<g id="NOTES">
</g>
<polygon fill="#FFFFFF" points="-132.3,300.7 -132.3,301.3 -133.9,301.3 -133.9,305.4 -134.6,305.4 -134.6,301.3 -136.1,301.3 
	-136.1,300.7 "/>
<polygon fill="#FFFFFF" points="-132,300.7 -131,300.7 -129.6,304.5 -129.6,304.5 -128.2,300.7 -127.2,300.7 -127.2,305.4 
	-127.9,305.4 -127.9,301.6 -127.9,301.6 -129.3,305.4 -129.9,305.4 -131.3,301.6 -131.3,301.6 -131.3,305.4 -132,305.4 "/>
<rect x="-273.4" y="270" fill="#FFFFFF" width="8.9" height="35.4"/>
<path fill="#FFFFFF" d="M-192.4,280.1c-0.4-0.2-3.2-1.9-7.5-1.9c-5.8,0-9.8,4-9.8,9.5c0,5.3,3.8,9.5,9.8,9.5c4.2,0,7.1-1.7,7.5-1.9
	v9.5c-1.1,0.3-4.2,1.3-8.1,1.3c-10.1,0-18.9-6.9-18.9-18.3c0-10.6,8-18.3,18.9-18.3c4.2,0,7.3,1,8.1,1.3V280.1z"/>
<path fill="#FFFFFF" d="M-285.7,280.1c-0.4-0.2-3.2-1.9-7.5-1.9c-5.8,0-9.8,4-9.8,9.5c0,5.3,3.8,9.5,9.8,9.5c4.2,0,7.1-1.7,7.5-1.9
	v9.5c-1.1,0.3-4.2,1.3-8.2,1.3c-10,0-18.9-6.9-18.9-18.3c0-10.6,8-18.3,18.9-18.3c4.2,0,7.3,1,8.2,1.3V280.1z"/>
<path fill="#FFFFFF" d="M-145.6,287.7c0,10.1-7.8,18.3-18.7,18.3c-10.9,0-18.7-8.2-18.7-18.3c0-10.1,7.8-18.3,18.7-18.3
	C-153.4,269.3-145.6,277.5-145.6,287.7z M-164.3,278.3c-5.3,0-9.3,4.2-9.3,9.3c0,5.1,3.9,9.3,9.3,9.3c5.3,0,9.2-4.2,9.2-9.3
	C-155,282.5-159,278.3-164.3,278.3z"/>
<path fill="#FFFFFF" d="M-230.6,278c-0.1,0-3.9-1.1-7-1.1c-3.6,0-5.5,1.2-5.5,2.9c0,2.2,2.6,2.9,4.1,3.4l2.5,0.8
	c5.8,1.8,8.5,5.8,8.5,10.1c0,8.9-7.8,11.9-14.7,11.9c-4.8,0-9.2-0.9-9.7-1v-8.1c0.8,0.2,4.5,1.3,8.5,1.3c4.4,0,6.5-1.3,6.5-3.3
	c0-1.8-1.8-2.8-4-3.5c-0.5-0.2-1.4-0.4-1.9-0.6c-5-1.6-9.1-4.5-9.1-10.4c0-6.6,5-11.1,13.2-11.1c4.4,0,8.5,1.1,8.7,1.1V278z"/>
<path fill="#FFFFFF" d="M-322.2,231.9c0-2.4-2-4.4-4.4-4.4c-2.4,0-4.4,2-4.4,4.4v9.3c0,2.5,2,4.4,4.4,4.4c2.4,0,4.4-2,4.4-4.4V231.9
	z"/>
<path fill="#FFFFFF" d="M-297.8,219.7c0-2.4-2-4.4-4.4-4.4c-2.4,0-4.4,2-4.4,4.4v21.5c0,2.5,2,4.4,4.4,4.4c2.4,0,4.4-2,4.4-4.4
	V219.7z"/>
<path fill="#FFFFFF" d="M-273.5,203c0-2.4-2-4.4-4.4-4.4c-2.5,0-4.5,2-4.5,4.4v47c0,2.5,2,4.4,4.5,4.4c2.4,0,4.4-2,4.4-4.4V203z"/>
<path fill="#FFFFFF" d="M-249.1,219.7c0-2.4-2-4.4-4.4-4.4c-2.4,0-4.4,2-4.4,4.4v21.5c0,2.5,2,4.4,4.4,4.4c2.5,0,4.4-2,4.4-4.4
	V219.7z"/>
<path fill="#FFFFFF" d="M-224.7,231.9c0-2.4-2-4.4-4.4-4.4c-2.5,0-4.4,2-4.4,4.4v9.3c0,2.5,2,4.4,4.4,4.4c2.4,0,4.4-2,4.4-4.4V231.9
	z"/>
<path fill="#FFFFFF" d="M-200.3,219.7c0-2.4-2-4.4-4.4-4.4c-2.4,0-4.4,2-4.4,4.4v21.5c0,2.5,2,4.4,4.4,4.4c2.5,0,4.4-2,4.4-4.4
	V219.7z"/>
<path fill="#FFFFFF" d="M-175.9,203c0-2.4-2-4.4-4.4-4.4c-2.5,0-4.4,2-4.4,4.4v47c0,2.5,2,4.4,4.4,4.4c2.4,0,4.4-2,4.4-4.4V203z"/>
<path fill="#FFFFFF" d="M-151.6,219.7c0-2.4-2-4.4-4.5-4.4c-2.4,0-4.4,2-4.4,4.4v21.5c0,2.5,2,4.4,4.4,4.4c2.5,0,4.5-2,4.5-4.4
	V219.7z"/>
<path fill="#FFFFFF" d="M-127.2,231.9c0-2.4-2-4.4-4.4-4.4c-2.5,0-4.4,2-4.4,4.4v9.3c0,2.5,2,4.4,4.4,4.4c2.4,0,4.4-2,4.4-4.4V231.9
	z"/>
</svg>
