<?xml version="1.0" encoding="utf-8"?>
<!-- Generator: Adobe Illustrator 18.1.1, SVG Export Plug-In . SVG Version: 6.00 Build 0)  -->
<!DOCTYPE svg PUBLIC "-//W3C//DTD SVG 1.1//EN" "http://www.w3.org/Graphics/SVG/1.1/DTD/svg11.dtd">
<svg version="1.1" id="Layer_1" xmlns="http://www.w3.org/2000/svg" xmlns:xlink="http://www.w3.org/1999/xlink" x="0px" y="0px"
	 viewBox="0 0 500 500" enable-background="new 0 0 500 500" xml:space="preserve">
<g id="FPO">
</g>
<g id="Global_Nav_Small_Icons">
</g>
<g id="Global_Nav_Small_1_">
</g>
<g id="Bag">
</g>
<g id="Global_Nav_Large_1_">
</g>
<g id="Guides">
</g>
<g id="NOTES">
</g>
<g>
	<path fill="#FFFFFF" d="M249.5,92.1c4.7,0,9.4-1.1,14.1-0.1c20.7,1.8,41.1,7.5,59.4,17.2c23.7,12.2,44.2,30.7,59.1,52.9
		c15.2,22.6,24.1,49.1,26.1,76.2c-0.4,7.1-0.5,14.4,0.2,21.6c-1.4,20.6-6.7,41-15.8,59.6c-10.5,21.6-26,40.6-44.9,55.4
		c-23.6,18.4-52.5,30-82.3,32.8c-4.5,0.4-9.1,1.2-13.6,0.8c-3.1-0.2-6.1,0.8-9-0.5c11.1-31.3,22.2-62.7,33.5-93.9
		c12.2-0.2,24.5,0.1,36.7-0.2c7.8-0.3,15.5-5.1,18.1-12.6c10.4-29.1,20.9-58.2,31-87.4c1.6-4.4,2.5-9.3,1.3-14
		c-1.8-5.9-7.1-10-12.9-11.6c-5-1.5-10.3-1-15.4-1.1c-15.7-0.1-31.4,0.1-47-0.1c-0.3,0.5-0.8,1.5-1,2.1
		c-25.4,71.3-50.7,142.8-76.3,214.1c-26.2-6.8-50.7-20.4-70.1-39.3c-23.5-22.4-39.7-52.3-45.8-84.2c-1.9-9.6-2.6-19.3-3.1-29.1
		c0.5-20.2,3.7-40.6,11.4-59.4c18.6-47.6,61.7-85.1,111.7-95.7C189,166.7,164,237.9,138.4,309c1.6,0.5,3.3,0.3,5.1,0.4
		c9.3-0.1,18.7,0,28,0c1.3,0,1.2-1.8,1.7-2.6c11.3-31.8,22.7-63.5,34-95.3c0.7-2,1.3-4,2.2-5.9c5.9,0.1,11.7,0,17.5,0.1
		c-12.3,34.4-24.5,68.9-36.8,103.2c1.3,0.5,2.7,0.4,4.1,0.4c9.8-0.1,19.6,0.1,29.4-0.1c11.1-31.2,22.3-62.5,33.4-93.7
		c2.3-6.4,2.6-14-1.2-19.9c-3.3-5.2-9.6-7.7-15.5-7.9c-8.1-0.3-16.3,0-24.5-0.1C226.9,155.8,238.4,124,249.5,92.1z"/>
	<path fill="#FFFFFF" d="M314.6,206.1c1-1.1,2.7-0.5,4-0.6c4.5,0.1,9,0,13.6,0.1c-10.6,30.2-21.6,60.1-32,90.3
		c-5.9,0.5-11.7,0.2-17.7,0.1C293.3,266.1,303.9,236.1,314.6,206.1z"/>
</g>
</svg>
