<?xml version="1.0" encoding="utf-8"?>
<!-- Generator: Adobe Illustrator 18.1.1, SVG Export Plug-In . SVG Version: 6.00 Build 0)  -->
<!DOCTYPE svg PUBLIC "-//W3C//DTD SVG 1.1//EN" "http://www.w3.org/Graphics/SVG/1.1/DTD/svg11.dtd">
<svg version="1.1" id="Layer_1" xmlns="http://www.w3.org/2000/svg" xmlns:xlink="http://www.w3.org/1999/xlink" x="0px" y="0px"
	 viewBox="0 0 500 500" enable-background="new 0 0 500 500" xml:space="preserve">
<g>
	<path fill="#FFFFFF" d="M429.1,260.8c0-5.7-0.2-11.5,0-17.2c0.5-15.6,13.5-27.5,29.6-27.3c15.8,0,28.9,11.9,29.4,27.1
		c0.2,12.2-0.2,24.3,0.2,36.5c0.2,5.7-3.7,3.9-6.4,4.1c-3,0.2-6.4,0.9-6.2-4.4c0.2-11.5,0.2-23.2,0-34.7
		c-0.5-13.5-13.8-20.9-25.7-14.5c-5.5,3-8.3,8-8.3,14.2c0,11.2-0.5,22.7,0,34c0.2,5.7-2.8,5.5-6.7,5.5s-6.4,0-6-5.3
		C429.5,272.7,429.1,266.8,429.1,260.8L429.1,260.8z"/>
	<path fill="#FFFFFF" d="M182.7,260.8c0,6.2-0.5,12.4,0,18.6c0.5,5.3-2.8,4.6-6,4.6s-6.9,0.9-6.7-4.8c0.5-11.5,0.5-23.2,0-34.7
		c-0.5-13.1-13.1-20.2-24.8-14.7c-6.2,3-9.2,8.3-9.2,14.9c0,11-0.2,22.3,0,33.3c0.2,5.3-1.8,6-6.2,5.7c-3.9-0.2-6.9,0.5-6.7-5.5
		c0.5-11,0-22.3,0.2-33.3c0.2-17,13.1-29.4,30.1-29.2c16.8,0.2,28.9,12.4,29.2,29.4C182.7,250.5,182.7,255.5,182.7,260.8z"/>
	<path fill="#FFFFFF" d="M217.9,270.4c5.5-15.8,10.8-30.8,16.1-45.7c0.7-2.1,1.4-4.1,2.5-6c1.8-3,4.8-3.4,7.8-2.3
		c3.2,1.4,4.4,4.1,3.2,7.3c-7.1,19.1-14.5,38.3-22,57.4c-2.1,5.1-7.1,1.6-10.8,2.3c-2.3,0.5-4.4,0-5.5-3
		c-6.9-18.6-14.2-37-21.1-55.6c-1.4-3.4-1.1-7.1,3-8.5c4.8-1.6,7.8,0.9,9.2,5.3c5.1,14.5,10.1,28.9,15.4,43.4
		C216.2,266.5,216.9,267.9,217.9,270.4z"/>
	<path fill="#FFFFFF" d="M306.2,216c5.5,0.5,11.9,1.8,17.4,6c2.8,2.1,4.8,4.8,2.5,8.3c-2.3,3.4-5.7,2.5-8.5,0.5
		c-5.5-4.1-11.2-6-18.1-4.4c-3.4,0.9-6.4,2.5-6.9,6.4c-0.5,3.9,1.8,6,4.8,7.3c6,2.8,12.2,5.1,18.1,7.8c10.1,4.6,13.8,9.6,12.9,17.7
		c-0.9,8.7-7.6,15.2-17.4,17.2c-8.3,1.8-16.1,0.7-23.9-2.5c-2.5-1.1-5.1-2.5-6.9-4.6c-2.3-2.3-3.4-5.3-1.1-8
		c2.1-2.8,5.1-1.8,7.6-0.2c5.5,3.7,11.2,6.9,18.4,6.4c2.3-0.2,4.6-0.5,6.9-1.6c6.4-3.2,7.1-9.4,1.1-13.5c-3.2-2.3-7.1-3.7-10.8-5.5
		c-4.6-2.3-9.4-3.9-13.8-6.7c-9.9-6.4-10.1-18.4-0.7-25.5C292.5,217.9,298.7,215.8,306.2,216z"/>
	<path fill="#FFFFFF" d="M34,250.9c1.8-3.2,3.9-6.7,5.7-10.1c1.8-3.7,3.2-7.3,0.2-11.5c-3-3.9-6.4-5.5-11.5-5.1
		c-5.5,0.7-10.6,3-16.1,3.9c-1.4-11-0.2-12.4,10.3-12.4c15.8,0,31.7,0,47.5,0c7.1,0,8,1.4,8.7,8.7c0.7,7.3-1.4,10.8-9,12.9
		C57.6,240.8,46.1,246.1,34,250.9z"/>
	<path fill="#FFFFFF" d="M78.5,243.6c0,11.9,0,22.7,0,33.3c0,3.9-2.1,6-6,6c-17.2,0-34.4,0-53.5,0C37.6,267,56.5,254.1,78.5,243.6z"
		/>
	<path fill="#FFFFFF" d="M269.3,251.8c0,9-0.2,17.9,0,26.9c0.2,5.7-3.2,4.8-6.7,4.8c-3.2,0-6.7,0.9-6.7-4.8c0.2-18.1,0-36.3,0-54.4
		c0-4.6,1.1-8.3,6.4-8.3c5.5,0,6.4,3.9,6.4,8.3C269.3,233.5,269.3,242.7,269.3,251.8z"/>
	<path fill="#FFFFFF" d="M98.3,251.4c0-8.7,0-17.4,0-26.4c0-4.6,0.9-9,6.7-9c5.5,0,6.2,4.1,6.2,8.5c0,17.9-0.2,36,0.2,53.9
		c0.2,6.2-3.4,4.8-7.1,5.1c-4.1,0.2-6.4-0.5-6.2-5.3C98.5,269.3,98.3,260.3,98.3,251.4z"/>
	<path fill="#FFFFFF" d="M338.1,251.1c0-9,0-17.9,0-26.9c0-4.6,1.4-8.3,6.7-8.3c5.5,0,6.4,3.9,6.4,8.3c0,18.1-0.2,36.3,0,54.4
		c0,5.7-3.4,4.8-6.7,4.8c-3.2,0-6.9,0.9-6.7-4.8C338.6,269.5,338.1,260.3,338.1,251.1z"/>
	<path fill="#FFFFFF" d="M11.7,262.2c0-7.8,0-13.3,0-19.1c0-3,1.8-3.7,4.1-3.9c3.2-0.2,7.1-1.6,9.6,1.4c1.8,2.3,0,4.4-1.4,6.2
		C20.4,251.6,16.8,256.2,11.7,262.2z"/>
	<path fill="#FFFFFF" d="M419.6,240.1c-2.5-16.1-18.6-26.6-34.7-23.4c-16.5,3.4-24.1,14-24.1,33.3c0,1.8,0,3.9,0,5.5
		c0.5,15.4,11.5,26.9,27.1,28.2c14.9,1.4,28.7-8.7,31.5-23.2C420.8,253.9,420.8,246.8,419.6,240.1z M408.2,256.4
		c-0.7,10.3-7.8,16.5-18.4,16.5c-10.3-0.2-17-6.7-17.4-17.2c0-2.1,0-3.9,0-6c0-1.8,0-3.9,0-5.7c0.5-9.9,6.9-16.3,16.8-16.8
		c10.6-0.5,18.1,5.5,19.1,15.6C408.6,247.2,408.6,251.8,408.2,256.4z"/>
</g>
</svg>
